<?xml version="1.0" standalone="no"?>
<!DOCTYPE svg PUBLIC "-//W3C//DTD SVG 20010904//EN"
 "http://www.w3.org/TR/2001/REC-SVG-20010904/DTD/svg10.dtd">
<svg version="1.0" xmlns="http://www.w3.org/2000/svg"
 width="300.000000pt" height="300.000000pt" viewBox="0 0 300.000000 300.000000"
 preserveAspectRatio="xMidYMid meet">
<metadata>
Created by potrace 1.14, written by Peter Selinger 2001-2017
</metadata>
<g transform="translate(0.000000,300.000000) scale(0.100000,-0.100000)"
fill="#000000" stroke="none">
<path d="M1214 2841 c-136 -24 -277 -72 -405 -137 -354 -181 -595 -496 -691
-904 -29 -124 -37 -450 -13 -575 74 -401 325 -732 690 -910 139 -68 239 -101
390 -127 103 -17 147 -20 315 -15 222 6 358 27 523 81 357 117 607 343 743
673 129 312 139 773 21 1083 -168 445 -545 751 -1026 835 -120 21 -416 19
-547 -4z m-370 -705 c102 -83 177 -104 421 -116 105 -6 251 -19 325 -30 74
-10 220 -26 324 -35 200 -16 230 -25 238 -67 6 -33 -19 -433 -31 -496 -6 -29
-20 -66 -31 -81 -41 -59 -32 -57 -685 -111 -164 -13 -198 -22 -213 -55 -27
-58 -53 -55 453 -55 460 0 465 0 486 -21 28 -28 22 -98 -15 -171 -54 -105
-103 -144 -171 -133 -70 10 -97 39 -106 115 -4 34 -13 66 -21 71 -7 5 -147 9
-310 9 -336 0 -318 5 -318 -82 0 -56 -19 -82 -75 -103 -82 -32 -160 3 -186 82
-14 43 -5 82 35 141 47 70 56 96 56 168 0 47 -13 113 -44 227 -25 89 -70 261
-100 382 -31 121 -61 233 -68 248 -11 30 -54 57 -87 57 -23 0 -45 34 -37 56 8
21 67 45 95 38 13 -3 42 -20 65 -38z"/>
<path d="M1152 1814 c-15 -10 -21 -22 -17 -37 78 -362 90 -392 140 -369 15 7
25 20 25 32 0 39 -72 345 -86 368 -17 26 -31 28 -62 6z"/>
<path d="M1816 1804 c-21 -20 -21 -20 14 -175 44 -194 49 -208 70 -219 30 -16
60 4 60 40 0 35 -66 324 -80 351 -13 23 -43 25 -64 3z"/>
<path d="M1471 1788 c-8 -22 6 -90 53 -267 14 -52 30 -99 35 -104 18 -18 45
-1 60 37 13 35 13 45 -1 95 -35 119 -47 167 -53 194 -12 58 -77 90 -94 45z"/>
</g>
</svg>
