<?xml version="1.0" encoding="UTF-8" standalone="no"?>
<svg
   xmlns:dc="http://purl.org/dc/elements/1.1/"
   xmlns:cc="http://creativecommons.org/ns#"
   xmlns:rdf="http://www.w3.org/1999/02/22-rdf-syntax-ns#"
   xmlns:svg="http://www.w3.org/2000/svg"
   xmlns="http://www.w3.org/2000/svg"
   xmlns:sodipodi="http://sodipodi.sourceforge.net/DTD/sodipodi-0.dtd"
   xmlns:inkscape="http://www.inkscape.org/namespaces/inkscape"
   inkscape:version="1.0 (4035a4f, 2020-05-01)"
   sodipodi:docname="Logo Proxi - 2012.svg"
   viewBox="0 0 599.99999 255.72029"
   height="255.72029"
   width="600"
   xml:space="preserve"
   id="svg833"
   version="1.1"><metadata
     id="metadata839"><rdf:RDF><cc:Work
         rdf:about=""><dc:format>image/svg+xml</dc:format><dc:type
           rdf:resource="http://purl.org/dc/dcmitype/StillImage" /><dc:title></dc:title></cc:Work></rdf:RDF></metadata><defs
     id="defs837" /><sodipodi:namedview
     inkscape:current-layer="g841"
     inkscape:window-maximized="0"
     inkscape:window-y="0"
     inkscape:window-x="0"
     inkscape:cy="183.96701"
     inkscape:cx="359.6334"
     inkscape:zoom="0.99979091"
     showgrid="false"
     id="namedview835"
     inkscape:window-height="900"
     inkscape:window-width="1440"
     inkscape:pageshadow="2"
     inkscape:pageopacity="0"
     guidetolerance="10"
     gridtolerance="10"
     objecttolerance="10"
     borderopacity="1"
     bordercolor="#666666"
     pagecolor="#ffffff" /><g
     transform="matrix(1.3333333,0,0,-1.3333333,-1072.5537,243.43666)"
     inkscape:label="Logo Proxi"
     inkscape:groupmode="layer"
     id="g841"><path
       d="m 841.36246,159.63703 c 0,0 -36.94716,0 -36.94716,-36.94453 V -9.2127276 h 413.0555 c 0,0 36.9445,0 36.9445,36.9418916 V 122.6925 c 0,0 0,36.94453 -36.9445,36.94453 z"
       style="fill:#801c55;fill-opacity:1;fill-rule:nonzero;stroke:none;stroke-width:2.63363"
       id="path2423" /><path
       d="m 1203.1149,122.20686 c -17.6611,0 -32.1118,13.48944 -32.1118,30.18664 0,16.69719 14.4507,30.184 32.1118,30.184 17.6611,0 31.7931,-13.48681 31.7931,-30.184 0,-16.6972 -14.132,-30.18664 -31.7931,-30.18664"
       style="fill:#afca0b;fill-opacity:1;fill-rule:nonzero;stroke:none;stroke-width:2.63363"
       id="path2443" /><g
       id="g2699"><path
         id="path2427"
         style="fill:#ffffff;fill-opacity:1;fill-rule:nonzero;stroke:none;stroke-width:2.63363"
         d="m 883.67405,57.593445 c -5.81768,0 -11.11917,0.339738 -15.39618,1.706591 V 18.426138 h -14.53763 c -8.55402,0 -17.9587,5.986235 -17.9587,20.181487 v 94.586725 c 8.89376,2.0516 23.94494,4.96176 35.2353,4.96176 h 13.17077 c 24.4585,0 43.44168,-13.6817 43.44168,-38.314014 0,-25.659432 -19.49674,-42.248651 -43.95524,-42.248651 m -2.39396,54.903235 h -6.50243 c -1.54067,0 -4.95912,-0.51093 -6.49979,-0.8533 V 85.304472 c 3.59226,-1.1983 7.69809,-1.540672 12.31747,-1.540672 10.26061,0 14.53499,4.787935 14.53499,13.339323 0,12.314837 -5.47268,15.393557 -13.85024,15.393557" /><path
         id="path2431"
         style="fill:#ffffff;fill-opacity:1;fill-rule:nonzero;stroke:none;stroke-width:2.63363"
         d="m 985.78453,88.21068 c -4.10319,1.538039 -7.1819,1.88041 -11.46155,1.88041 -7.86664,0 -14.02406,-3.932006 -14.02406,-15.393552 V 18.427455 h -8.8964 c -14.02143,0 -22.57545,6.497159 -22.57545,22.230449 v 40.881798 c 0,18.985818 12.8284,34.036998 34.21082,34.036998 16.24684,0 23.77375,-6.67098 23.77375,-15.39355 V 88.21068 Z" /><path
         id="path2435"
         style="fill:#ffffff;fill-opacity:1;fill-rule:nonzero;stroke:none;stroke-width:2.63363"
         d="m 1036.2411,115.06394 c -29.5888,0 -51.13974,-20.526497 -51.13974,-51.655972 0,-27.708394 21.89074,-47.547509 48.74584,-47.547509 32.4989,0 51.1424,19.839115 51.1424,50.626219 0,29.07788 -23.089,48.577262 -48.7485,48.577262" /><path
         id="path2439"
         style="fill:#ffffff;fill-opacity:1;fill-rule:nonzero;stroke:none;stroke-width:2.63363"
         d="m 1194.7478,109.29497 c 18.4723,0 24.4585,-5.30149 24.4585,-22.406898 V 18.129329 h -6.3259 c -18.4749,0 -26.173,7.184535 -26.173,24.289945 v 66.875696 z" /><path
         id="path2447"
         style="fill:#ffffff;fill-opacity:1;fill-rule:nonzero;stroke:none;stroke-width:2.63363"
         d="m 1128.8297,95.463953 c 2.5863,-3.613336 4.9908,-7.400493 7.577,-11.013829 8.7779,9.465256 13.0786,16.523376 14.456,28.398406 h 13.255 c 6.7105,0 12.9074,-4.64572 12.9074,-11.18765 0,-10.67146 -4.6457,-19.794345 -18.4169,-33.562949 l -5.8493,-5.85192 c 6.8843,-9.294071 13.9398,-18.074585 19.9655,-27.884847 2.7521,-4.648352 4.4745,-8.77788 4.8169,-16.178373 h -17.5558 c -4.6457,0 -9.1228,1.719759 -13.9397,6.194292 -2.2413,2.067397 -5.6808,6.54193 -8.7806,10.845277 -2.9259,4.129528 -6.6104,8.843721 -6.4049,9.114985 l -23.9055,-26.246731 c -4.2875,0.782188 -19.768,-0.655773 -19.8786,12.862636 -0.042,5.164544 5.4384,11.327232 12.3227,19.931293 3.7846,4.819538 9.1493,10.205306 14.485,16.059859 l -0.9586,1.21937 c -7.0713,9.383614 -14.3217,18.248404 -20.5107,28.153477 -2.8285,4.693121 -4.5957,8.862151 -4.9539,16.336391 h 18.0404 c 4.7747,0 9.3704,-1.73556 14.3243,-6.25487 2.2991,-2.08846 5.8361,-6.605133 9.0149,-10.947985" /></g><path
       d="m 1056.6115,49.691773 c -1.9542,0.0053 -3.9083,0.0079 -5.8625,0.01053 l -5.4806,0.0079 c -4.3349,0.01053 -8.6725,0.01843 -13.0075,0.0316 -2.5072,0.0079 -5.4568,0.02107 -8.3802,0.05004 -0.4687,1.31418 -0.1738,2.307057 0.9508,3.265697 l 0.4925,0.418747 c 2.3018,0.21069 4.6035,0.418747 6.9053,0.626804 3.8083,0.345005 7.6139,0.69001 11.4247,1.035015 3.1735,0.287066 6.3471,0.592566 9.5206,0.845395 1.3247,0.105345 2.3334,0.703178 3.1445,1.693422 1.1562,1.411624 1.5354,3.115581 1.7672,4.869577 0.5768,4.29808 0.6189,8.62513 0.7058,12.949546 0.034,1.52487 0.082,3.04974 0.1159,4.574611 0,0.200155 -0.018,0.400311 -0.029,0.642605 -1.9752,0.200155 -3.9162,0.397677 -5.8598,0.5952 -3.4185,0.345005 -6.8395,0.687376 -10.258,1.032381 -3.3974,0.339738 -6.7947,0.679476 -10.1895,1.021848 -3.4211,0.345005 -6.8395,0.695278 -10.2606,1.040283 -2.4677,0.250194 -4.9354,0.484587 -7.4031,0.74795 -0.2423,0.02634 -0.6742,0.139582 -0.6742,0.302867 0,1.819837 -2.2939,3.8767 -4.0506,3.879333 -0.8427,0 -1.6855,0.0395 -2.5256,0.03687 -0.9613,-0.0026 -1.6434,-0.634704 -1.6803,-1.522237 -0.034,-0.927037 0.6163,-1.624948 1.6118,-1.664452 1.1377,-0.04477 2.0384,-0.08954 3.1709,-0.03687 0.024,-0.05794 0.3951,-1.332615 0.6953,-2.486144 0.6189,-2.372899 1.222,-4.751064 1.8146,-7.131863 1.7434,-7.01335 3.4737,-14.029333 5.2277,-21.037416 0.2713,-1.006045 0.8691,-1.577543 1.4775,-1.904112 -0.3924,-0.350273 -0.6558,-0.668942 -0.7058,-0.737416 -1.3748,-1.717125 -1.4538,-3.513259 -0.266,-5.335729 -2.1886,-0.45035 -3.8346,-2.3887 -3.8346,-4.708926 0,-2.65733 2.1543,-4.811637 4.8116,-4.811637 2.6521,0 4.8064,2.154307 4.8064,4.811637 0,1.050817 -0.3424,2.019992 -0.9165,2.812714 h 24.7719 c -0.5715,-0.792722 -0.9112,-1.761897 -0.9112,-2.812714 0,-2.65733 2.1516,-4.811637 4.809,-4.811637 2.6547,0 4.8063,2.154307 4.8063,4.811637 0,1.019214 -0.3186,1.962052 -0.8612,2.741606 l 0.1159,-0.0026 0.084,0.01843 c 0.032,0.0079 0.063,0.0158 0.092,0.02107 l 0.026,0.0079 c 1.2299,0.100078 2.0621,0.95864 2.0332,2.093734 -0.032,1.179865 -0.9455,2.00419 -2.2254,2.006824 m -9.1861,27.626751 c 1.0534,0.237026 2.0963,-0.42138 2.3386,-1.474831 l 2.8496,-12.580838 c 0.2397,-1.053451 -0.4214,-2.099001 -1.4748,-2.338661 -0.1449,-0.0316 -0.2897,-0.04741 -0.4319,-0.04741 -0.8928,0 -1.6987,0.616269 -1.9041,1.522237 l -2.8523,12.580838 c -0.237,1.053451 0.424,2.099001 1.4749,2.338661 m -12.0383,-0.0395 c 1.0481,0.258095 2.1042,-0.379243 2.365,-1.427426 l 3.1103,-12.520265 c 0.2607,-1.048184 -0.3793,-2.106902 -1.4248,-2.367631 -0.1607,-0.0395 -0.3187,-0.05794 -0.4741,-0.05794 -0.877,0 -1.6723,0.5952 -1.8936,1.485366 l -3.1103,12.520265 c -0.2607,1.048183 0.3793,2.106901 1.4275,2.367631 m -11.5511,0.07111 c 1.0587,0.221224 2.0911,-0.460885 2.3097,-1.51697 l 2.6099,-12.63351 c 0.2212,-1.056085 -0.4583,-2.091101 -1.5144,-2.307058 -0.1343,-0.02897 -0.2686,-0.04214 -0.3976,-0.04214 -0.9086,0 -1.7198,0.634704 -1.912,1.559107 l -2.6126,12.633511 c -0.2186,1.056085 0.4609,2.0911 1.517,2.307058"
       style="fill:#801c55;fill-opacity:1;fill-rule:nonzero;stroke:none;stroke-width:2.63363"
       id="path2451" /></g></svg>
